<svg xmlns="http://www.w3.org/2000/svg" xmlns:xlink="http://www.w3.org/1999/xlink" width="309" height="420" viewBox="0 0 309 420" fill="none">
<g  clip-path="url(#clip-path-1_10)">
<path     fill="#FFFFFF"  d="M0 420L309 420L309 0L0 0L0 420Z">
</path>
<path d="M0 0L310 0L310 420L0 420L0 0Z"   fill="#1B549E" >
</path>
<path d="M200 31L271 31L271 286L200 286L200 31Z"   fill="#FFECA8" >
</path>
<path     fill="#000000"  d="M234.828 40.9844C236.375 40.9844 236.586 42.8125 236.586 42.8125L236.586 55.6094C243.266 55.6094 249.805 60.25 249.805 60.25C253.461 63.5547 254.305 65.1016 254.305 65.1016C255.992 67.4922 257.328 70.5859 257.328 70.5859C259.578 76.2109 261.406 84.1562 261.406 84.1562C262.531 90.1328 262.531 93.0859 262.531 93.0859C262.18 94.7734 260.914 94.7734 260.914 94.7734L260.773 94.7734C258.945 94.7734 258.945 92.2422 258.945 92.2422C258.945 88.0234 255.992 77.4062 255.992 77.4062C253.953 70.7266 251.773 67.5625 251.773 67.5625C250.789 66.0156 248.75 64.0469 248.75 64.0469C244.812 60.6719 241.367 59.8984 241.367 59.8984L241.367 59.9688C246.781 99.2734 248.188 110.242 248.188 110.242L248.188 110.805C248.188 111.93 246.57 112.281 246.57 112.281L246.289 112.281C244.672 112 244.672 110.383 244.672 110.383C243.336 100.188 238.414 64.3984 238.414 64.3984L237.711 59.1953C236.727 59.125 236.305 59.125 236.305 59.125L233.141 59.125C232.789 59.125 232.156 59.1953 232.156 59.1953C230.82 69.5312 226.25 102.719 226.25 102.719C225.828 105.32 225.125 111.227 225.125 111.227C224.492 112.281 223.648 112.281 223.648 112.281L223.438 112.281C221.68 112.07 221.68 110.594 221.68 110.594C223.086 99.4844 228.008 64.0469 228.008 64.0469C228.5 60.3203 228.5 59.8281 228.5 59.8281C227.516 59.8984 223.859 61.7969 223.859 61.7969C218.023 65.4531 215.07 73.3281 215.07 73.3281C211.766 83.5234 211.766 85 211.766 85C210.641 90.5547 210.641 93.5781 210.641 93.5781C210.008 94.7734 209.094 94.7734 209.094 94.7734L208.953 94.7734C207.195 94.4922 207.195 93.1562 207.195 93.1562L207.195 93.0859C207.195 85.2812 212.117 71.1484 212.117 71.1484C213.453 67.7734 215.914 64.3984 215.914 64.3984C216.828 63.2031 219.008 61.0938 219.008 61.0938C223.719 57.0859 229.133 56.0312 229.133 56.0312C231.523 55.6094 233.141 55.6094 233.141 55.6094L233.141 42.6016C233.141 41.3359 234.828 40.9844 234.828 40.9844Z">
</path>
<path     fill="#000000"  d="M235.039 175L235.18 175C236.516 175.281 236.516 176.195 236.516 176.195C235.461 191.031 235.461 205.305 235.461 205.305C235.461 209.242 235.672 212.828 235.672 212.828L235.742 212.828C241.367 209.312 243.336 203.969 243.336 203.969C244.602 200.805 244.602 194.828 244.602 194.828C244.602 191.102 244.461 178.516 244.461 178.516C244.461 178.445 244.391 176.898 244.391 176.898C244.742 175.703 245.586 175.703 245.586 175.703L246.078 175.703C246.781 175.703 247.203 176.758 247.203 176.758C247.414 188.078 247.414 196.094 247.414 196.094L261.406 196.094C262.672 196.375 262.672 197.43 262.672 197.43L262.672 197.57C262.672 198.766 261.125 198.906 261.125 198.906L247.344 198.906C247.203 198.906 247.203 199.117 247.203 199.117C247.203 202.07 245.445 206.289 245.445 206.289L260.352 206.289C261.617 206.57 261.617 207.484 261.617 207.484L261.617 207.766C261.617 208.891 260.07 209.102 260.07 209.102L243.758 209.102C241.789 212.055 237.781 214.867 237.781 214.867C236.656 215.57 236.516 215.641 236.516 215.641C237.219 216.766 239.961 216.766 239.961 216.766L243.195 216.766C249.031 216.766 262.109 216.414 262.109 216.414C263.164 216.836 263.164 217.82 263.164 217.82C262.883 219.156 261.828 219.156 261.828 219.156C248.82 219.578 242.562 219.578 242.562 219.578L240.242 219.578C235.18 219.578 233.773 216.555 233.773 216.555C232.648 215.148 232.648 206.922 232.648 206.922L232.648 205.164C232.648 191.805 233.703 176.055 233.703 176.055C234.195 175 235.039 175 235.039 175ZM219.359 175.914L220.625 175.914C224.844 175.914 225.477 177.039 225.477 177.039C225.969 177.18 226.672 178.938 226.672 178.938C226.742 179.57 226.742 180.133 226.742 180.133C223.648 203.266 223.648 219.578 223.648 219.578C223.648 228.016 224.422 240.883 224.422 240.883C224.422 241.727 223.086 242.078 223.086 242.078C221.75 242.078 221.68 240.391 221.68 240.391C220.977 230.125 220.977 221.266 220.977 221.266L220.977 217.891C220.977 202.984 224 179.852 224 179.852C224 178.656 221.75 178.656 221.75 178.656L218.023 178.656C217.883 178.656 216.617 182.945 216.617 182.945C212.75 196.375 209.234 214.586 209.234 214.586C208.672 215.43 207.898 215.43 207.898 215.43C206.492 215.148 206.492 214.023 206.492 214.023C210.992 191.172 215 178.797 215 178.797L214.93 178.797L210.43 179.078C209.375 178.656 209.375 177.742 209.375 177.742L209.375 177.672C209.375 176.195 211.766 176.195 211.766 176.195C215.844 175.914 219.359 175.914 219.359 175.914Z">
</path>
</g>
<defs>
<clipPath id="clip-path-1_10">
<path d="M0 420L309 420L309 0L0 0L0 420Z" fill="white"/>
</clipPath>
</defs>
</svg>
