<?xml version="1.0" encoding="utf-8"?>
<svg width="129" height="197" viewBox="0 0 129 197" fill="none" xmlns="http://www.w3.org/2000/svg">
  <g>
    <rect width="129" height="197" fill="#4679C5" fill-rule="evenodd" />
    <rect width="43" height="147.093" fill="#F2CA63" fill-rule="evenodd" transform="translate(68.294 13.133)" />
    <path d="M14 0C14.5095 3.8147e-06 14.799 0.287773 14.8685 0.863306L14.8685 6.90645C17.0686 6.90645 19.2457 7.63694 21.3995 9.09792C22.6038 10.1383 23.3449 10.902 23.6228 11.389C24.1787 12.1416 24.6766 13.0049 25.1166 13.9789C25.8577 15.7498 26.5294 17.8859 27.1315 20.3873C27.5021 22.2689 27.6873 23.6745 27.6873 24.6042C27.5715 25.1355 27.3052 25.4011 26.8883 25.4011L26.8189 25.4011C26.2167 25.4011 25.9156 25.0027 25.9156 24.2058C25.9156 22.8776 25.4293 20.5423 24.4566 17.1997C23.7849 15.0968 23.0902 13.5473 22.3722 12.5511C22.048 12.0641 21.55 11.5107 20.8784 10.8909C19.5815 9.82841 18.3656 9.17539 17.2308 8.9319L17.2308 8.9651C19.0141 21.3391 20.1373 29.2528 20.6005 32.706L20.6005 32.9716C20.6005 33.3258 20.3342 33.5583 19.8015 33.6689L19.6625 33.6689C19.1299 33.5804 18.8635 33.2816 18.8635 32.7724C18.4235 29.5627 17.3929 22.3242 15.7717 11.057L15.4243 8.59986C15.1001 8.57772 14.8685 8.56665 14.7295 8.56665L13.1663 8.56665C13.0505 8.56665 12.8883 8.57772 12.6799 8.59986C12.2399 11.8539 11.2672 18.705 9.76179 29.1532C9.62283 29.9722 9.43755 31.3114 9.20596 33.1709C8.99752 33.5029 8.75434 33.6689 8.47643 33.6689L8.37221 33.6689C7.79322 33.6025 7.50372 33.3369 7.50372 32.872C7.96691 29.3745 9.00909 22.0475 10.6303 10.8909C10.7924 9.71773 10.8735 9.05365 10.8735 8.89869C10.5492 8.92083 9.78495 9.23073 8.58064 9.82841C6.65839 10.9795 5.21091 12.7946 4.23821 15.2739C3.14971 18.4836 2.60546 20.3209 2.60546 20.7858C2.2349 22.5345 2.04963 23.8848 2.04963 24.8366C1.84119 25.213 1.58643 25.4011 1.28536 25.4011L1.21588 25.4011C0.636887 25.3126 0.347397 25.058 0.347397 24.6374L0.347397 24.6042C0.347397 22.1471 1.15798 18.6939 2.77916 14.2445C3.21919 13.182 3.8445 12.1195 4.65509 11.057C4.95616 10.6806 5.46568 10.1604 6.18362 9.49636C7.73532 8.23461 9.40281 7.43771 11.1861 7.10567C11.9735 6.97285 12.6336 6.90645 13.1663 6.90645L13.1663 0.763693C13.1663 0.365244 13.4442 0.11068 14 0L14 0ZM14.1042 35.5284L14.1737 35.5284C14.6137 35.6169 14.8337 35.8051 14.8337 36.0928C14.4864 40.7635 14.3127 45.3457 14.3127 49.8393C14.3127 51.0789 14.3474 52.2632 14.4169 53.3921L14.4516 53.3921C16.3044 52.2853 17.555 50.8908 18.2035 49.2084C18.6203 48.2123 18.8288 46.7735 18.8288 44.8919C18.8288 43.7187 18.8056 41.1509 18.7593 37.1886C18.7593 37.1664 18.7477 36.9119 18.7246 36.4249C18.8404 36.0486 19.0372 35.8604 19.3151 35.8604L19.5583 35.8604C19.7899 35.8604 19.9752 36.0264 20.1141 36.3585C20.1836 39.9224 20.2184 42.9661 20.2184 45.4896L27.1315 45.4896C27.5484 45.5781 27.7568 45.7884 27.7568 46.1205L27.7568 46.1869C27.7568 46.5632 27.5021 46.7735 26.9926 46.8177L20.1836 46.8177C20.1373 46.8177 20.1141 46.8509 20.1141 46.9174C20.1141 47.8471 19.8246 48.976 19.2457 50.3042L26.6104 50.3042C27.0273 50.3927 27.2357 50.5809 27.2357 50.8686L27.2357 51.0014C27.2357 51.3556 26.981 51.5659 26.4715 51.6323L18.4119 51.6323C17.7634 52.562 16.7792 53.4696 15.4591 54.3551C15.0885 54.5764 14.8801 54.6982 14.8337 54.7203C15.0653 55.0745 15.6328 55.2516 16.536 55.2516L18.134 55.2516C20.0562 55.2516 23.1712 55.1962 27.4789 55.0855C27.8263 55.2184 28 55.4397 28 55.7496C27.9074 56.1702 27.6873 56.3805 27.34 56.3805C23.0554 56.5133 19.8825 56.5797 17.8213 56.5797L16.6749 56.5797C15.0074 56.5797 13.9421 56.1038 13.4789 55.152C13.1084 54.7092 12.9231 53.1929 12.9231 50.603L12.9231 49.7729C12.9231 45.5671 13.0968 40.9849 13.4442 36.0264C13.6063 35.6944 13.8263 35.5284 14.1042 35.5284L14.1042 35.5284ZM6.35732 35.96L6.98263 35.96C8.37221 35.96 9.17122 36.1371 9.37965 36.4913C9.54177 36.5355 9.73862 36.8344 9.97022 37.3878C9.99339 37.587 10.005 37.7752 10.005 37.9523C8.98594 45.235 8.47643 51.4442 8.47643 56.5797C8.47643 59.2361 8.60381 62.5897 8.85856 66.6406C8.85856 66.9062 8.63854 67.0944 8.19851 67.205C7.75848 67.205 7.52688 66.9394 7.50372 66.4081C7.27213 63.1763 7.15633 60.1658 7.15633 57.3766L7.15633 55.7828C7.15633 51.09 7.65426 45.1022 8.65012 37.8194C8.65012 37.4431 8.27957 37.255 7.53846 37.255L5.69727 37.255C5.65096 37.255 5.41936 37.9301 5.00248 39.2804C3.7287 43.5084 2.51282 48.489 1.35484 54.2222C1.16956 54.4879 0.949547 54.6207 0.694786 54.6207C0.231598 54.5322 0 54.3108 0 53.9566C1.48222 46.7624 2.88338 41.2173 4.20348 37.3214L4.16873 37.3214L1.94541 37.4542C1.59801 37.3214 1.42432 37.1111 1.42432 36.8233L1.42432 36.7901C1.42432 36.3253 1.81803 36.0928 2.60546 36.0928C3.94872 36.0043 5.19934 35.96 6.35732 35.96L6.35732 35.96ZM13.4442 103.896C18.1919 103.896 21.0521 104.183 22.0248 104.759C23.0207 105.246 23.5186 106.164 23.5186 107.515L23.5186 107.548C23.5186 109.031 22.8586 110.005 21.5385 110.47C20.2647 110.935 17.9487 111.167 14.5906 111.167L11.9851 111.167C7.88586 111.167 5.33829 110.802 4.34243 110.072C3.57816 109.518 3.19603 108.765 3.19603 107.814L3.19603 107.183C3.19603 105.744 4.0761 104.803 5.83623 104.36C7.11001 104.05 9.64599 103.896 13.4442 103.896L13.4442 103.896ZM9.76179 105.257L9.76179 105.29C10.7113 106.84 11.4293 108.157 11.9156 109.241C12.0546 109.64 12.1472 109.839 12.1936 109.839L14.3821 109.839C15.3548 109.839 16.2812 109.817 17.1613 109.773L17.1613 109.739C16.6286 108.566 15.8875 107.227 14.938 105.722C14.7295 105.368 14.6021 105.19 14.5558 105.19L14.0695 105.19C12.5641 105.19 11.1282 105.213 9.76179 105.257L9.76179 105.257ZM16.2581 105.224L16.2581 105.257C17.2076 106.784 17.9487 108.135 18.4814 109.308C18.4814 109.352 18.5277 109.485 18.6203 109.706C19.6857 109.573 20.4615 109.43 20.9479 109.275C21.689 108.965 22.0596 108.633 22.0596 108.278C22.129 108.168 22.1638 107.946 22.1638 107.614L22.1638 107.415C22.1638 106.53 21.7585 105.987 20.9479 105.788C19.7899 105.434 18.2729 105.257 16.397 105.257C16.397 105.235 16.3507 105.224 16.2581 105.224L16.2581 105.224ZM4.55087 107.515C4.55087 108.334 4.84036 108.876 5.41936 109.142C6.57734 109.585 8.32589 109.806 10.665 109.806C10.1323 108.633 9.37965 107.271 8.40695 105.722C8.26799 105.523 8.19851 105.401 8.19851 105.357C7.71216 105.357 6.87841 105.5 5.69727 105.788C4.95616 106.01 4.58561 106.53 4.58561 107.349C4.58561 107.349 4.57403 107.404 4.55087 107.515L4.55087 107.515ZM3.40446 112.13C4.49297 112.13 5.66253 112.318 6.91315 112.695C8.34904 113.292 9.067 114.399 9.067 116.015C9.067 116.48 9.04384 117.93 8.99752 120.365C8.99752 125.168 9.29859 130.503 9.90074 136.369C9.90074 136.701 9.65757 136.911 9.17122 137C8.75434 137 8.52274 136.734 8.47643 136.203C7.89744 130.359 7.60794 125.069 7.60794 120.332C7.65426 117.919 7.67742 116.447 7.67742 115.915C7.67742 114.941 7.24896 114.277 6.39206 113.923C5.90571 113.746 5.56989 113.658 5.38461 113.658L5.38461 131.82C5.33829 132.351 5.14144 132.617 4.79404 132.617L4.55087 132.617C4.18031 132.506 3.99504 132.329 3.99504 132.086L3.99504 113.558C3.99504 113.514 3.9603 113.492 3.89082 113.492C3.24235 113.492 2.91811 113.392 2.91811 113.193C2.80231 113.104 2.74442 112.971 2.74442 112.794C2.83706 112.352 3.05708 112.13 3.40446 112.13L3.40446 112.13ZM12.2978 112.661L12.4715 112.661C14.9032 112.661 16.1191 113.89 16.1191 116.347C16.0496 118.339 16.0149 120.166 16.0149 121.826L16.0149 121.859C16.0149 126.685 16.316 131.51 16.9181 136.336C16.9181 136.624 16.7097 136.812 16.2928 136.9L16.1886 136.9C15.818 136.9 15.598 136.635 15.5285 136.103C14.9264 131.499 14.6253 126.751 14.6253 121.859C14.6253 120.154 14.6716 118.295 14.7643 116.281C14.7643 115.285 14.4864 114.62 13.9305 114.288C13.6989 114.178 13.3979 114.089 13.0273 114.023L13.0273 114.056C12.8652 117.576 12.7841 120.83 12.7841 123.818L12.7841 124.515C12.7841 128.212 12.9578 131.034 13.3052 132.982L13.3052 133.016C13.2126 133.392 12.9694 133.58 12.5757 133.58C12.1588 133.491 11.9504 133.292 11.9504 132.982C11.5798 131.189 11.3945 128.422 11.3945 124.681L11.3945 123.42C11.3945 120.564 11.4756 117.432 11.6377 114.023C11.3135 114.045 11.1166 114.056 11.0471 114.056C10.7461 114.056 10.5376 113.835 10.4218 113.392C10.4218 112.971 10.7229 112.739 11.3251 112.695C11.6956 112.672 12.0199 112.661 12.2978 112.661L12.2978 112.661ZM18.8288 112.695C21.6079 112.695 22.9975 113.58 22.9975 115.351L22.9975 117.708C22.9975 124.349 23.7502 130.415 25.2556 135.904L25.2556 136.004C25.2556 136.336 25.0356 136.546 24.5955 136.635C24.1092 136.635 23.8081 136.203 23.6923 135.34C22.3027 130.138 21.6079 124.283 21.6079 117.775L21.6079 115.384C21.6079 114.786 21.3069 114.41 20.7047 114.255C20.4731 114.145 20.1605 114.089 19.7668 114.089C19.5815 116.568 19.4888 118.97 19.4888 121.294C19.4888 125.567 19.8131 129.241 20.4615 132.318C20.3689 132.739 20.172 132.949 19.871 132.949L19.6973 132.949C19.2572 132.949 19.0025 132.506 18.933 131.621C18.3772 128.788 18.0993 125.345 18.0993 121.294C18.0993 119.192 18.1919 116.779 18.3772 114.056C18.4003 114.056 18.4119 114.056 18.4119 114.056C18.3887 114.056 18.3772 114.045 18.3772 114.023L18.134 114.056L17.8561 114.056C17.4392 113.945 17.2308 113.757 17.2308 113.492L17.2308 113.259C17.2308 112.971 17.4624 112.794 17.9256 112.728C18.2035 112.706 18.5045 112.695 18.8288 112.695L18.8288 112.695Z" fill="#000000" transform="translate(75 18)" />
  </g>
</svg>